<svg id="Calque_1" data-name="Calque 1" xmlns="http://www.w3.org/2000/svg" viewBox="0 0 2840.25 558.79"><defs><style>.cls-1{fill:#fff;}</style></defs><path class="cls-1" d="M0,558.79V0H149.77V28.32H122.71q-21.4,0-36.5,7.86T71.11,73.62V485.17q0,29.57,15.1,37.44t36.5,7.87h27.06v28.31Z"/><path class="cls-1" d="M381,210.81q-57.88-16.37-81.8-49.72T275.24,87.47q0-27.69,14.79-43.11A48.25,48.25,0,0,1,326.21,29q18.27,0,30.21,9.75t12,29.26q0,15.74-6.93,23.91a48.36,48.36,0,0,1-16,12.59,105.7,105.7,0,0,0-16.05,9.44q-6.92,5-6.92,14.47,0,18.25,14.16,31.47T381,183.12Zm-127.74,0Q196,194.45,171.73,161.09T147.5,87.47q0-27.69,14.79-43.11A48.25,48.25,0,0,1,198.47,29q18.27,0,30.21,9.75T240.63,68q0,15.74-6.92,23.91a48.36,48.36,0,0,1-16,12.59,105.7,105.7,0,0,0-16,9.44q-6.92,5-6.92,14.47,0,18.25,14.47,31.47t44.05,23.28Z"/><path class="cls-1" d="M341.32,478.25V449.93H352q18.25,0,28-9.12t20.45-39.33L539.54,29h59.15L737.76,413.43q8.18,21.4,18.25,28.95t27.69,7.55h8.81v28.32H610V449.93h17q16.35,0,25.8-6.92t9.44-22a45.67,45.67,0,0,0-1.58-11.64q-1.57-6-3.46-12.27l-24.54-68.59H470.32l-22,62.93q-2.52,7.54-4.4,15.73A63.35,63.35,0,0,0,442,421q0,14.49,10.07,21.71t27.69,7.24H498v28.32ZM482.9,295.13H620.71L583.59,186.89q-9.45-25.78-17.31-51T553.38,88.1q-5,22-12.27,44.36t-17.3,49.4Z"/><path class="cls-1" d="M818.49,478.25V449.93h1.88q21.39,0,36.19-7.87t14.79-37.44V212.06q0-27.67-14.48-35.23t-35.24-7.56h-1.88V141H924.83l12,58.52h3.15a218.32,218.32,0,0,1,17.93-33.67,69.05,69.05,0,0,1,25.8-23.28q16.05-8.49,43.11-8.49,35.23,0,52.23,12.58t17,35.24q0,22-15.42,35.55t-48.77,13.53q0-25.78-7.24-38.07T999.09,180.6q-17,0-28.63,13.22t-17.94,33.35a247,247,0,0,0-9.12,41.53,291.48,291.48,0,0,0-2.83,37.76V407.77q0,27.69,14.78,34.92t34.93,7.24h18.25v28.32Z"/><path class="cls-1" d="M1264.19,484.54q-46.57,0-69.22-21.71t-22.65-76.46V178.71h-47.2V151.66a75.91,75.91,0,0,0,27.69-5.67,66.2,66.2,0,0,0,24.54-16.36A85,85,0,0,0,1195,102.89q6.91-16,11.33-39.33h35.24V141h81.8v37.75h-81.8V386.37q0,30.84,12.27,45.31t34.29,14.47a164.88,164.88,0,0,0,21.08-1.25q9.75-1.26,19.83-3.15v31.46q-8.19,3.78-26.43,7.55A189.07,189.07,0,0,1,1264.19,484.54Z"/><path class="cls-1" d="M1360.09,478.25V449.93h3.77q21.39,0,36.19-7.87t14.78-36.81V69.85q0-18.24-7.23-27.06A34.14,34.14,0,0,0,1389,31.15a98.14,98.14,0,0,0-23.91-2.83h-5.66V0h124.59V129q0,12.6-.63,26.43t-2.51,34h3.77q10.07-20.13,23.91-32.41a83.86,83.86,0,0,1,31.15-17.62,128.71,128.71,0,0,1,38.08-5.34q52.85,0,81.17,29.26t28.32,93.44V404.62q0,29.6,12.58,37.44t34,7.87h1.89v28.32H1618.09V263.67q0-40.91-14.16-63.25t-50-22.34q-23.93,0-39.64,12.9t-23,35.56q-7.24,22.65-7.24,52.23V408.4q0,27.06,14.48,34.29t35.24,7.24h1.88v28.32Z"/><path class="cls-1" d="M1885.78,484.54q-49.72,0-76.46-29.58t-26.74-94.39V212.69q0-27.67-14.16-35.55t-34.92-7.87h-1.89V141H1851.8V353.65q0,40.92,12.58,63.87t48.46,23q38.37,0,55.69-27.37t17.3-72.68V213.32q0-28.93-14.78-36.49t-34.93-7.56h-1.89V141h120.82V408.4q0,27.69,14.48,34.61t34.61,6.92h2.51v28.32h-107l-9.44-49.09h-3.15q-19.52,34.62-45.31,45T1885.78,484.54Z"/><path class="cls-1" d="M2139.5,478.25V449.93h1.89q21.39,0,36.18-7.87t14.79-37.44V212.06q0-27.67-14.47-35.23t-35.24-7.56h-1.89V141h105.09l12,58.52H2261a219.2,219.2,0,0,1,17.94-33.67,69.05,69.05,0,0,1,25.8-23.28q16-8.49,43.1-8.49,35.24,0,52.23,12.58t17,35.24q0,22-15.42,35.55t-48.77,13.53q0-25.78-7.23-38.07T2320.1,180.6q-17,0-28.63,13.22t-17.93,33.35a248,248,0,0,0-9.13,41.53,293.27,293.27,0,0,0-2.83,37.76V407.77q0,27.69,14.79,34.92t34.92,7.24h18.25v28.32Z"/><path class="cls-1" d="M2451.42,183.12q30.21-10.06,44.37-23.28t14.15-31.47q0-9.44-6.92-14.47a106.07,106.07,0,0,0-16-9.44,48.3,48.3,0,0,1-16.05-12.59Q2464,83.71,2464,68q0-19.5,11.95-29.26T2506.17,29a48.23,48.23,0,0,1,36.18,15.41q14.78,15.44,14.79,43.11,0,40.27-23.91,73.62t-81.81,49.72Zm127.75,0q29.57-10.06,44-23.28t14.48-31.47q0-9.44-6.93-14.47a106.07,106.07,0,0,0-16-9.44,48.3,48.3,0,0,1-16-12.59q-6.93-8.16-6.92-23.91,0-19.5,12-29.26t30.2-9.75a48.23,48.23,0,0,1,36.18,15.41q14.79,15.44,14.79,43.11,0,40.27-24.22,73.62t-81.49,49.72Z"/><path class="cls-1" d="M2690.48,558.79V530.48h27.06q21.39,0,36.5-7.87t15.1-37.44V73.62q0-29.57-15.1-37.44t-36.5-7.86h-27.06V0h149.77V558.79Z"/></svg>