<svg id="Calque_1" data-name="Calque 1" xmlns="http://www.w3.org/2000/svg" viewBox="0 0 2800.76 621.6"><path d="M0,621.6V0H156.1V29.4H126q-23.81,0-40.6,8.75T68.6,79.8v462q0,32.9,16.8,41.65T126,592.2h30.1v29.4Z"/><path d="M382.13,230.3q-62.29-18.2-88.55-55.3T267.33,93.1q0-29.4,16.1-45.15t37.8-15.75q19.61,0,32.55,10.5t13,30.8q0,16.11-7.7,24.5a58.36,58.36,0,0,1-17.85,13.3,117.9,117.9,0,0,0-17.85,10.5q-7.69,5.61-7.7,16.1,0,20.31,16.1,36t50.4,27Zm-140,0q-62.3-18.2-88.55-55.3T127.33,93.1q0-29.4,16.1-45.15t37.8-15.75q19.61,0,32.55,10.5t12.95,30.8q0,16.11-7.7,24.5a58.36,58.36,0,0,1-17.85,13.3,117.9,117.9,0,0,0-17.85,10.5q-7.7,5.61-7.7,16.1,0,20.31,16.1,36t50.4,27Z"/><path d="M317.73,532V502.6H331q20.3,0,30.45-10.5T384.23,448L539.63,32.2h54.6L752.44,465.5q7.68,21.71,18.54,29.4t31.15,7.7h9.1V532H618.73V502.6h16.1q21,0,31.5-8.05T676.83,469a55.77,55.77,0,0,0-1.39-11.9,118.28,118.28,0,0,0-4.21-14l-28-78.4H459.13l-26.6,73.5A156.6,156.6,0,0,0,428,454.65a65.88,65.88,0,0,0-1.75,13.65q0,17.51,11.55,25.9t34.66,8.4h16.09V532ZM472.44,329.7H630.63l-43.4-122.5Q576,176.4,566.94,149.1a525.59,525.59,0,0,1-14.71-52.5,386.07,386.07,0,0,1-12.6,48.3q-7.71,23.1-19.6,56Z"/><path d="M832,532V511.42h6.37q16.17,0,28.17-5.63t12-27.2V236q0-21.56-12-27.44t-28.17-5.88H832V182.14H963.77q63.69,0,94.81,23.52t31.12,71q0,26-10.78,43.85a88,88,0,0,1-27.2,28.67,146,146,0,0,1-34.05,16.66l67.13,106.33q12.73,19.61,24.5,29.4a40.86,40.86,0,0,0,27,9.8h1.47V532h-6.86q-30.39,0-47.29-3.19t-27.19-12.73q-10.29-9.56-21.56-28.18L968.67,377.65H928V478.59q0,21.57,12,27.2t28.18,5.63h6.37V532ZM962.3,354.62q43.11,0,59-19.11t15.93-57.33q0-39.19-17.15-55.86t-58.8-16.66H928v149Z"/><path d="M1186,532V511.42h11.27q16.17,0,28.17-5.63t12-27.2V206.64h-47q-21.57,0-29.89,12a61.38,61.38,0,0,0-10.29,28.17l-2.45,21.07h-25.48l2.45-85.75h275.87l2.45,85.75h-25.48l-2.45-21.07a61.61,61.61,0,0,0-10.29-28.17q-8.34-12-30.38-12H1287v269.5q0,23,11.76,29.16t28.42,6.12h11.27V532Z"/><path d="M1413.7,532V511.42h6.37q16.65,0,28.42-6.12t11.76-29.16V236q0-21.56-12-27.44t-28.18-5.88h-6.37V182.14h142.59v20.58h-6.37q-16.67,0-28.42,6.13T1509.74,238v99H1669V238q0-23-11.76-29.15t-28.42-6.13h-6.37V182.14H1765v20.58h-6.37q-16.67,0-28.42,6.13T1718.48,238V478.59q0,21.57,12,27.2t28.17,5.63H1765V532H1622.44V511.42h6.37q16.65,0,28.42-6.12T1669,476.14V361.48H1509.74V476.14q0,23,11.76,29.16t28.42,6.12h6.37V532Z"/><path d="M1946.83,536.9q-57.82,0-90.65-25.48t-32.83-85.26V236q0-21.56-12-27.44t-28.17-5.88h-6.37V182.14h142.59v20.58H1913q-16.66,0-28.42,6.13T1872.84,238V429.1q0,42.63,23,60.52t58.8,17.88q42.13,0,62.23-21.56T2037,431.06V236q0-21.56-12-27.44t-28.17-5.88h-6.37V182.14h123v20.58h-6.37q-16.67,0-28.42,6.13T2066.88,238V432q0,49-30.87,76.93T1946.83,536.9Z"/><path d="M2125,532V511.42h6.37q16.17,0,28.17-5.63t12-27.2V236q0-21.56-12-27.44t-28.17-5.88H2125V182.14h131.81q63.69,0,94.81,23.52t31.12,71q0,26-10.78,43.85a87.91,87.91,0,0,1-27.2,28.67,145.84,145.84,0,0,1-34.05,16.66l67.13,106.33q12.74,19.61,24.5,29.4a40.86,40.86,0,0,0,26.95,9.8h1.47V532h-6.86q-30.39,0-47.29-3.19t-27.19-12.73q-10.29-9.56-21.56-28.18l-66.15-110.25H2221V478.59q0,21.57,12,27.2t28.18,5.63h6.37V532Zm130.34-177.38q43.11,0,59-19.11t15.93-57.33q0-39.19-17.15-55.86t-58.8-16.66H2221v149Z"/><path d="M2644.66,621.6V592.2h30.1q23.79,0,40.6-8.75t16.8-41.65V79.8q0-32.89-16.8-41.65t-40.6-8.75h-30.1V0h156.1V621.6Z"/><path d="M2416.18,200.9q34.29-11.19,50.4-27t16.1-36q0-10.5-7.7-16.1a117.4,117.4,0,0,0-17.85-10.5A58.36,58.36,0,0,1,2439.28,98q-7.71-8.4-7.7-24.5,0-20.3,13-30.8t32.55-10.5q21.69,0,37.8,15.75T2531,93.1q0,44.81-26.25,81.9t-88.55,55.3Zm140,0q34.29-11.19,50.4-27t16.1-36q0-10.5-7.7-16.1a117.4,117.4,0,0,0-17.85-10.5A58.36,58.36,0,0,1,2579.28,98q-7.71-8.4-7.7-24.5,0-20.3,13-30.8t32.55-10.5q21.69,0,37.8,15.75T2671,93.1q0,44.81-26.25,81.9t-88.55,55.3Z"/></svg>