<?xml version="1.0" standalone="no"?>
<!DOCTYPE svg PUBLIC "-//W3C//DTD SVG 20010904//EN"
 "http://www.w3.org/TR/2001/REC-SVG-20010904/DTD/svg10.dtd">
<svg version="1.0" xmlns="http://www.w3.org/2000/svg"
 width="5000.000000pt" height="2000.000000pt" viewBox="0 0 5000.000000 2000.000000"
 preserveAspectRatio="xMidYMid meet">

<g transform="translate(0.000000,2000.000000) scale(0.100000,-0.100000)"
fill="#000000" stroke="none">
<path d="M5560 13779 c-971 -57 -1699 -343 -2195 -860 -288 -300 -497 -680
-619 -1124 -72 -262 -126 -586 -157 -940 -16 -186 -24 -1665 -10 -1987 43
-1009 255 -1678 699 -2208 360 -430 917 -732 1607 -870 362 -72 662 -94 1178
-87 500 7 780 38 1143 127 828 204 1420 651 1758 1326 184 367 291 780 353
1364 13 129 17 313 20 1100 3 618 1 1009 -6 1130 -60 1007 -318 1706 -811
2200 -445 447 -1067 713 -1880 804 -302 34 -750 45 -1080 25z m579 -2049 c361
-25 583 -100 748 -254 197 -184 288 -435 323 -896 13 -176 13 -1494 0 -1675
-54 -729 -278 -1026 -850 -1126 -151 -27 -469 -36 -646 -20 -239 22 -428 73
-560 152 -68 40 -180 143 -229 208 -109 149 -176 365 -211 680 -21 184 -31
1253 -15 1616 20 463 77 721 203 917 50 78 166 192 241 236 219 131 582 190
996 162z"/>
<path d="M10013 10008 c2 -3518 3 -3676 21 -3743 60 -230 190 -364 421 -432
57 -17 188 -18 2378 -21 l2317 -2 0 1030 0 1030 -1452 2 c-1433 3 -1453 3
-1487 23 -19 11 -43 38 -55 60 l-21 40 -3 2843 -2 2842 -1060 0 -1060 0 3
-3672z"/>
<path d="M16212 13669 c-153 -18 -309 -92 -392 -186 -54 -61 -105 -166 -127
-260 -17 -75 -18 -226 -18 -3488 0 -3306 1 -3412 19 -3480 31 -117 73 -193
151 -271 84 -85 166 -127 298 -155 87 -18 157 -19 1402 -19 764 0 1370 4 1455
10 670 46 1178 178 1625 423 860 471 1317 1310 1405 2577 13 192 13 1645 0
1842 -101 1484 -715 2390 -1892 2793 -347 119 -757 190 -1238 215 -236 12
-2584 11 -2688 -1z m2616 -2059 c266 -29 504 -105 657 -210 105 -73 213 -196
273 -315 57 -113 108 -298 139 -500 16 -107 18 -194 18 -830 0 -740 -2 -782
-46 -997 -116 -576 -444 -829 -1139 -879 -80 -6 -298 -9 -485 -7 -321 3 -342
4 -375 23 -19 12 -43 36 -55 55 -20 35 -20 46 -23 1775 -2 1277 0 1751 9 1782
11 39 57 94 89 106 28 10 840 7 938 -3z"/>
<path d="M25050 13673 c-179 -12 -364 -47 -501 -94 -159 -54 -354 -174 -455
-281 -207 -216 -323 -521 -354 -928 -6 -87 -10 -1278 -10 -3347 l0 -3213 1060
0 1060 0 3 2743 c2 2132 5 2752 15 2785 35 121 104 205 200 244 l57 23 510 0
c485 0 513 -1 565 -20 77 -28 160 -110 191 -190 l24 -60 3 -2762 2 -2763 1025
0 1025 0 0 2743 c0 2930 -2 2785 48 2883 29 58 112 129 175 151 48 16 94 18
557 18 463 0 509 -2 557 -18 63 -22 146 -93 175 -151 50 -98 48 47 48 -2883
l0 -2743 1065 0 1065 0 -3 3298 c-3 3056 -4 3305 -20 3409 -75 492 -273 804
-625 986 -156 80 -310 126 -537 159 -135 19 -2677 19 -2785 -1 -227 -41 -379
-119 -536 -276 -84 -84 -128 -141 -180 -238 l-31 -58 -32 65 c-71 138 -224
298 -373 388 -112 69 -249 110 -423 127 -97 10 -2430 14 -2565 4z"/>
<path d="M36250 13666 c-110 -24 -183 -83 -228 -181 -21 -48 -2422 -7645
-2422 -7665 0 -7 394 -9 1127 -8 l1127 3 676 2490 c371 1370 679 2498 682
2508 4 9 14 17 22 17 9 0 19 -8 25 -17 9 -19 849 -2869 858 -2915 l5 -28 -618
-2 -618 -3 -262 -1025 -261 -1025 2320 -3 c1276 -1 2322 0 2324 2 6 6 -2565
7584 -2596 7651 -53 115 -126 174 -247 200 -93 20 -1826 21 -1914 1z"/>
<path d="M42025 13669 c-278 -36 -447 -178 -521 -439 -18 -63 -19 -203 -22
-3742 l-2 -3678 1060 0 1060 0 2 2888 c3 2867 3 2887 23 2921 11 19 33 43 48
55 28 21 34 21 765 24 539 2 752 0 792 -9 131 -28 221 -107 261 -231 22 -68
24 -87 24 -303 0 -256 -6 -293 -67 -395 -28 -46 -44 -60 -102 -90 l-69 -35
-658 -3 -659 -3 0 -885 0 -885 883 4 c763 3 896 6 985 20 613 99 1003 331
1297 772 240 359 354 739 386 1286 15 259 6 867 -16 1049 -87 720 -391 1198
-930 1459 -258 126 -555 196 -930 221 -197 12 -3508 12 -3610 -1z"/>
</g>
</svg>
